#Comment line ignore any data following # character 
#Hierarchical Translation and Rotation (.htr) file 
[Header]	
#Header keywords are followed by a single value 
FileType HTR		#Single word string
DataType HTRS		#Translation followed by rotation and scale data
FileVersion 1		#integer
NumSegments 84		#integer
NumFrames 2		#integer
DataFrameRate 30		#integer, data frame rate in this file
EulerRotationOrder ZYX
CalibrationUnits mm
RotationUnits Degrees
GlobalAxisofGravity Y
BoneLengthAxis Y
ScaleFactor 1.00
[SegmentNames&Hierarchy]
#CHILD	PARENT
MASTER GLOBAL
root MASTER
chest root
L_mid_tent01 root
R_mid_tent01 root
spine01 root
Bip01_Neck chest
L_humerus chest
R_humerus chest
weapon_bone chest
Bip01_Head Bip01_Neck
eye_left_bone Bip01_Head
eye_right_bone Bip01_Head
L_forearm L_humerus
L_front_hand L_forearm
L_weapon_bone L_forearm
L_front_hand01_01 L_front_hand
L_front_hand02_01 L_front_hand
L_front_hand03_01 L_front_hand
L_front_hand01_02 L_front_hand01_01
L_front_hand02_02 L_front_hand02_01
L_front_hand03_02 L_front_hand03_01
R_forearm R_humerus
R_front_hand R_forearm
R_weapon_bone R_forearm
R_front_hand01_01 R_front_hand
R_front_hand02_01 R_front_hand
R_front_hand03_01 R_front_hand
R_front_hand01_02 R_front_hand01_01
R_front_hand02_02 R_front_hand02_01
R_front_hand03_02 R_front_hand03_01
null_rope01_connect L_mid_tent01
Rope1_Seg01 null_rope01_connect
Rope1_Seg02 Rope1_Seg01
Rope1_Seg03 Rope1_Seg02
Rope1_Seg04 Rope1_Seg03
Rope1_Seg05 Rope1_Seg04
Rope1_Seg06 Rope1_Seg05
Rope1_Seg07 Rope1_Seg06
Rope1_Seg09 Rope1_Seg07
L_mid_hand01 Rope1_Seg09
L_mid_hand02 Rope1_Seg09
L_mid_hand03 Rope1_Seg09
null_rope02_connect R_mid_tent01
Rope2_Seg01 null_rope02_connect
Rope2_Seg02 Rope2_Seg01
Rope2_Seg03 Rope2_Seg02
Rope2_Seg04 Rope2_Seg03
Rope2_Seg05 Rope2_Seg04
Rope2_Seg06 Rope2_Seg05
Rope2_Seg07 Rope2_Seg06
Rope2_Seg09 Rope2_Seg07
R_mid_hand01 Rope2_Seg09
R_mid_hand02 Rope2_Seg09
R_mid_hand03 Rope2_Seg09
spine02 spine01
spine03 spine02
pelvis spine03
null_rope03_connect pelvis
null_rope04_connect pelvis
Rope3_Seg01 null_rope03_connect
Rope3_Seg02 Rope3_Seg01
Rope3_Seg03 Rope3_Seg02
Rope3_Seg04 Rope3_Seg03
Rope3_Seg05 Rope3_Seg04
Rope3_Seg06 Rope3_Seg05
Rope3_Seg07 Rope3_Seg06
Rope3_Seg08 Rope3_Seg07
Rope3_Seg09 Rope3_Seg08
R_rear_hand01 Rope3_Seg09
R_rear_hand02 Rope3_Seg09
R_rear_hand03 Rope3_Seg09
Rope4_Seg01 null_rope04_connect
Rope4_Seg02 Rope4_Seg01
Rope4_Seg03 Rope4_Seg02
Rope4_Seg04 Rope4_Seg03
Rope4_Seg05 Rope4_Seg04
Rope4_Seg06 Rope4_Seg05
Rope4_Seg07 Rope4_Seg06
Rope4_Seg08 Rope4_Seg07
Rope4_Seg09 Rope4_Seg08
L_rear_hand01 Rope4_Seg09
L_rear_hand02 Rope4_Seg09
L_rear_hand03 Rope4_Seg09
[BasePosition]
#SegmentName Tx, Ty, Tz, Rx, Ry, Rz, BoneLength
MASTER 0.000000 0.000000 0.000000 -90.000000 0.000000 0.000000 10.000000 
root 0.000000 0.000000 0.000000 0.000000 0.000000 0.000000 10.000000 
chest 0.000000 0.000000 0.000000 0.000000 0.000000 0.000000 10.000000 
L_mid_tent01 0.000000 0.000000 0.000000 0.000000 0.000000 0.000000 10.000000 
R_mid_tent01 0.000000 0.000000 0.000000 0.000000 0.000000 0.000000 10.000000 
spine01 0.000000 0.000000 0.000000 0.000000 0.000000 0.000000 10.000000 
Bip01_Neck 0.000000 0.000000 0.000000 0.000000 0.000000 0.000000 10.000000 
L_humerus 0.000000 0.000000 0.000000 0.000000 0.000000 0.000000 10.000000 
R_humerus 0.000000 0.000000 0.000000 0.000000 0.000000 0.000000 10.000000 
weapon_bone 0.000000 0.000000 0.000000 0.000000 0.000000 0.000000 10.000000 
Bip01_Head 0.000000 0.000000 0.000000 0.000000 0.000000 0.000000 10.000000 
eye_left_bone 0.000000 0.000000 0.000000 0.000000 0.000000 0.000000 10.000000 
eye_right_bone 0.000000 0.000000 0.000000 0.000000 0.000000 0.000000 10.000000 
L_forearm 0.000000 0.000000 0.000000 0.000000 0.000000 0.000000 10.000000 
L_front_hand 0.000000 0.000000 0.000000 0.000000 0.000000 0.000000 10.000000 
L_weapon_bone 0.000000 0.000000 0.000000 0.000000 0.000000 0.000000 10.000000 
L_front_hand01_01 0.000000 0.000000 0.000000 0.000000 0.000000 0.000000 10.000000 
L_front_hand02_01 0.000000 0.000000 0.000000 0.000000 0.000000 0.000000 10.000000 
L_front_hand03_01 0.000000 0.000000 0.000000 0.000000 0.000000 0.000000 10.000000 
L_front_hand01_02 0.000000 0.000000 0.000000 0.000000 0.000000 0.000000 10.000000 
L_front_hand02_02 0.000000 0.000000 0.000000 0.000000 0.000000 0.000000 10.000000 
L_front_hand03_02 0.000000 0.000000 0.000000 0.000000 0.000000 0.000000 10.000000 
R_forearm 0.000000 0.000000 0.000000 0.000000 0.000000 0.000000 10.000000 
R_front_hand 0.000000 0.000000 0.000000 0.000000 0.000000 0.000000 10.000000 
R_weapon_bone 0.000000 0.000000 0.000000 0.000000 0.000000 0.000000 10.000000 
R_front_hand01_01 0.000000 0.000000 0.000000 0.000000 0.000000 0.000000 10.000000 
R_front_hand02_01 0.000000 0.000000 0.000000 0.000000 0.000000 0.000000 10.000000 
R_front_hand03_01 0.000000 0.000000 0.000000 0.000000 0.000000 0.000000 10.000000 
R_front_hand01_02 0.000000 0.000000 0.000000 0.000000 0.000000 0.000000 10.000000 
R_front_hand02_02 0.000000 0.000000 0.000000 0.000000 0.000000 0.000000 10.000000 
R_front_hand03_02 0.000000 0.000000 0.000000 0.000000 0.000000 0.000000 10.000000 
null_rope01_connect 0.000000 0.000000 0.000000 0.000000 0.000000 0.000000 10.000000 
Rope1_Seg01 0.000000 0.000000 0.000000 0.000000 0.000000 0.000000 10.000000 
Rope1_Seg02 0.000000 0.000000 0.000000 0.000000 0.000000 0.000000 10.000000 
Rope1_Seg03 0.000000 0.000000 0.000000 0.000000 0.000000 0.000000 10.000000 
Rope1_Seg04 0.000000 0.000000 0.000000 0.000000 0.000000 0.000000 10.000000 
Rope1_Seg05 0.000000 0.000000 0.000000 0.000000 0.000000 0.000000 10.000000 
Rope1_Seg06 0.000000 0.000000 0.000000 0.000000 0.000000 0.000000 10.000000 
Rope1_Seg07 0.000000 0.000000 0.000000 0.000000 0.000000 0.000000 10.000000 
Rope1_Seg09 0.000000 0.000000 0.000000 0.000000 0.000000 0.000000 10.000000 
L_mid_hand01 0.000000 0.000000 0.000000 0.000000 0.000000 0.000000 10.000000 
L_mid_hand02 0.000000 0.000000 0.000000 0.000000 0.000000 0.000000 10.000000 
L_mid_hand03 0.000000 0.000000 0.000000 0.000000 0.000000 0.000000 10.000000 
null_rope02_connect 0.000000 0.000000 0.000000 0.000000 0.000000 0.000000 10.000000 
Rope2_Seg01 0.000000 0.000000 0.000000 0.000000 0.000000 0.000000 10.000000 
Rope2_Seg02 0.000000 0.000000 0.000000 0.000000 0.000000 0.000000 10.000000 
Rope2_Seg03 0.000000 0.000000 0.000000 0.000000 0.000000 0.000000 10.000000 
Rope2_Seg04 0.000000 0.000000 0.000000 0.000000 0.000000 0.000000 10.000000 
Rope2_Seg05 0.000000 0.000000 0.000000 0.000000 0.000000 0.000000 10.000000 
Rope2_Seg06 0.000000 0.000000 0.000000 0.000000 0.000000 0.000000 10.000000 
Rope2_Seg07 0.000000 0.000000 0.000000 0.000000 0.000000 0.000000 10.000000 
Rope2_Seg09 0.000000 0.000000 0.000000 0.000000 0.000000 0.000000 10.000000 
R_mid_hand01 0.000000 0.000000 0.000000 0.000000 0.000000 0.000000 10.000000 
R_mid_hand02 0.000000 0.000000 0.000000 0.000000 0.000000 0.000000 10.000000 
R_mid_hand03 0.000000 0.000000 0.000000 0.000000 0.000000 0.000000 10.000000 
spine02 0.000000 0.000000 0.000000 0.000000 0.000000 0.000000 10.000000 
spine03 0.000000 0.000000 0.000000 0.000000 0.000000 0.000000 10.000000 
pelvis 0.000000 0.000000 0.000000 0.000000 0.000000 0.000000 10.000000 
null_rope03_connect 0.000000 0.000000 0.000000 0.000000 0.000000 0.000000 10.000000 
null_rope04_connect 0.000000 0.000000 0.000000 0.000000 0.000000 0.000000 10.000000 
Rope3_Seg01 0.000000 0.000000 0.000000 0.000000 0.000000 0.000000 10.000000 
Rope3_Seg02 0.000000 0.000000 0.000000 0.000000 0.000000 0.000000 10.000000 
Rope3_Seg03 0.000000 0.000000 0.000000 0.000000 0.000000 0.000000 10.000000 
Rope3_Seg04 0.000000 0.000000 0.000000 0.000000 0.000000 0.000000 10.000000 
Rope3_Seg05 0.000000 0.000000 0.000000 0.000000 0.000000 0.000000 10.000000 
Rope3_Seg06 0.000000 0.000000 0.000000 0.000000 0.000000 0.000000 10.000000 
Rope3_Seg07 0.000000 0.000000 0.000000 0.000000 0.000000 0.000000 10.000000 
Rope3_Seg08 0.000000 0.000000 0.000000 0.000000 0.000000 0.000000 10.000000 
Rope3_Seg09 0.000000 0.000000 0.000000 0.000000 0.000000 0.000000 10.000000 
R_rear_hand01 0.000000 0.000000 0.000000 0.000000 0.000000 0.000000 10.000000 
R_rear_hand02 0.000000 0.000000 0.000000 0.000000 0.000000 0.000000 10.000000 
R_rear_hand03 0.000000 0.000000 0.000000 0.000000 0.000000 0.000000 10.000000 
Rope4_Seg01 0.000000 0.000000 0.000000 0.000000 0.000000 0.000000 10.000000 
Rope4_Seg02 0.000000 0.000000 0.000000 0.000000 0.000000 0.000000 10.000000 
Rope4_Seg03 0.000000 0.000000 0.000000 0.000000 0.000000 0.000000 10.000000 
Rope4_Seg04 0.000000 0.000000 0.000000 0.000000 0.000000 0.000000 10.000000 
Rope4_Seg05 0.000000 0.000000 0.000000 0.000000 0.000000 0.000000 10.000000 
Rope4_Seg06 0.000000 0.000000 0.000000 0.000000 0.000000 0.000000 10.000000 
Rope4_Seg07 0.000000 0.000000 0.000000 0.000000 0.000000 0.000000 10.000000 
Rope4_Seg08 0.000000 0.000000 0.000000 0.000000 0.000000 0.000000 10.000000 
Rope4_Seg09 0.000000 0.000000 0.000000 0.000000 0.000000 0.000000 10.000000 
L_rear_hand01 0.000000 0.000000 0.000000 0.000000 0.000000 0.000000 10.000000 
L_rear_hand02 0.000000 0.000000 0.000000 0.000000 0.000000 0.000000 10.000000 
L_rear_hand03 0.000000 0.000000 0.000000 0.000000 0.000000 0.000000 10.000000 
#Beginning of Data. Separated by tabs
#Fr	Tx	Ty	Tz	Rx	Ry	Rz	SF
[MASTER]
6 0.000000 0.000000 0.000000 0.001660 0.001660 0.001660 0.000000
7 0.000000 0.000000 0.000000 0.001660 0.001660 0.001660 0.000000
[root]
6 -11.799727 8.767986 1639.431274 -63.189312 -13.733894 -83.760696 1639.497070
7 -52.429783 180.532745 1587.121460 -66.912506 -15.064984 -69.735458 1598.216309
[chest]
6 -84.512650 -34.090519 0.000000 5.466437 -3.252530 -178.606537 91.129311
7 -84.512650 -34.090519 0.000000 5.613060 -3.400885 -178.251221 91.129311
[L_mid_tent01]
6 27.299099 22.179234 -249.918777 -22.619047 27.807623 37.473564 252.381760
7 27.299099 22.179230 -249.918777 -26.108330 20.940937 32.736122 252.381760
[R_mid_tent01]
6 23.228794 24.509907 226.238495 -85.633575 -33.140129 -18.218157 228.744751
7 23.228794 24.509907 226.238495 -77.430428 -46.362717 -24.620575 228.744751
[spine01]
6 -0.361383 -0.195265 0.000000 -0.067385 -0.030248 22.576141 0.410763
7 -0.361383 -0.195265 0.000000 -0.075646 -0.033602 22.641703 0.410763
[Bip01_Neck]
6 165.484543 71.581718 0.000119 175.896118 1.177290 24.871183 180.302734
7 165.484543 71.581718 0.000119 175.896118 1.177290 24.871183 180.302734
[L_humerus]
6 -13.983130 -135.272980 -120.471481 -4.924013 65.436363 85.122986 181.680161
7 -13.983130 -135.272980 -120.471481 -4.868886 65.075684 85.176247 181.680161
[R_humerus]
6 -13.983309 -135.273102 125.287651 -85.391731 -22.687088 177.971970 184.909012
7 -13.983309 -135.273102 125.287651 -91.857124 -31.222868 170.789322 184.909012
[weapon_bone]
6 235.964890 -300.705902 0.000000 0.000000 -89.951546 -128.212341 382.234833
7 235.964890 -300.705902 0.000000 0.000000 -89.951546 -128.212341 382.234833
[Bip01_Head]
6 249.876251 150.428726 -7.986071 4.991808 5.842649 -62.457806 291.771698
7 248.736557 154.545898 -8.220750 -3.618628 5.844439 -62.454765 292.953735
[eye_left_bone]
6 0.888979 120.149666 -57.616947 0.000000 -90.000000 -99.840431 133.253311
7 1.186525 120.087822 -57.533573 0.000000 -90.000000 -99.840431 133.163834
[eye_right_bone]
6 0.893938 120.147926 71.483368 0.000000 -89.965736 80.156380 139.807709
7 1.191522 120.086037 71.566795 0.000000 -89.972023 80.156387 139.799438
[L_forearm]
6 322.776093 0.000000 -0.000119 0.000425 -0.002308 -110.843697 322.776093
7 322.776093 0.000000 -0.000119 0.000428 -0.002308 -110.993805 322.776093
[L_front_hand]
6 241.149185 -0.042021 -3.300071 -178.667953 -1.835447 -27.422350 241.171753
7 241.149185 -0.042021 -3.300071 -178.667953 -1.835447 -27.422342 241.171753
[L_weapon_bone]
6 156.183838 0.000000 0.000000 0.000014 0.000007 0.000001 156.183838
7 156.183838 0.000000 0.000000 0.000014 0.000007 0.000001 156.183838
[L_front_hand01_01]
6 86.095154 20.947098 -0.655860 -0.366594 -0.477154 75.385574 88.609184
7 86.095154 20.947098 -0.655860 -0.366594 -0.477154 75.385574 88.609184
[L_front_hand02_01]
6 86.935165 -11.437475 24.513514 154.403519 -59.888931 -61.371990 91.046425
7 86.935165 -11.437475 24.513514 154.403488 -59.888916 -61.371967 91.046425
[L_front_hand03_01]
6 86.637497 -14.123976 -20.424902 -153.913849 58.118130 -62.702866 90.126129
7 86.637497 -14.123976 -20.424902 -153.913849 58.118130 -62.702866 90.126129
[L_front_hand01_02]
6 71.020905 -0.000179 0.000030 0.000334 -0.002323 -106.379684 71.020905
7 71.020905 -0.000179 0.000030 0.000334 -0.002323 -106.379684 71.020905
[L_front_hand02_02]
6 71.020927 -0.000119 0.000060 0.000334 -0.002323 -106.379684 71.020927
7 71.020927 -0.000119 0.000060 0.000334 -0.002323 -106.379684 71.020927
[L_front_hand03_02]
6 71.020905 -0.000060 0.000060 0.000334 -0.002323 -106.379684 71.020905
7 71.020905 -0.000060 0.000060 0.000334 -0.002323 -106.379684 71.020905
[R_forearm]
6 322.776428 -0.000060 0.000030 0.213237 0.006307 -92.771080 322.776428
7 322.776428 -0.000060 0.000030 0.199229 -0.076837 -69.204483 322.776428
[R_front_hand]
6 238.847015 -0.006795 2.210259 -15.331835 -0.562938 -22.199697 238.857239
7 238.847015 -0.006795 2.210259 -14.553031 0.395714 -15.854230 238.857239
[R_weapon_bone]
6 155.664093 0.002503 -0.000030 0.003487 0.001180 -90.988930 155.664078
7 155.664093 0.002503 -0.000030 0.003487 0.001180 -90.988930 155.664078
[R_front_hand01_01]
6 87.624611 14.231146 22.918642 -117.926445 -14.954013 8.243813 91.683487
7 87.624611 14.231146 22.918642 -131.739639 -47.177948 33.656700 91.683487
[R_front_hand02_01]
6 89.356956 14.367283 -19.491137 119.277702 13.958570 10.614038 92.579636
7 89.356956 14.367283 -19.491137 132.827606 45.717766 36.476955 92.579636
[R_front_hand03_01]
6 87.286232 -22.307278 -0.143439 -0.281789 -0.354047 -16.509243 90.091743
7 87.286232 -22.307278 -0.143439 -0.000556 -0.455687 -55.028141 90.091743
[R_front_hand01_02]
6 71.020905 0.000060 0.000119 0.001807 0.001498 10.665142 71.020905
7 71.020905 0.000060 0.000119 0.001861 0.001430 14.910438 71.020905
[R_front_hand02_02]
6 71.020844 -0.000030 -0.000119 0.001807 0.001498 10.665142 71.020836
7 71.020844 -0.000030 -0.000119 0.001861 0.001430 14.910438 71.020836
[R_front_hand03_02]
6 71.020905 0.000000 0.000030 0.001807 0.001498 10.665142 71.020905
7 71.020905 0.000000 0.000030 0.001861 0.001430 14.910438 71.020905
[null_rope01_connect]
6 328.732483 0.000000 -0.000238 -164.726303 -83.544510 -135.848557 328.732483
7 328.732483 0.000000 -0.000238 120.170731 -71.781395 -51.517929 328.732483
[Rope1_Seg01]
6 -0.000019 -0.000062 0.000025 -163.773483 63.530212 -142.969894 0.000070
7 -0.000015 -0.000061 0.000031 -161.477325 49.226410 -134.505112 0.000070
[Rope1_Seg02]
6 139.999863 -0.000179 0.000000 -10.440063 -5.029793 27.986580 139.999863
7 139.999863 -0.000179 0.000000 -16.371992 -2.848108 27.019995 139.999863
[Rope1_Seg03]
6 139.999924 0.000060 -0.000060 -3.492072 -6.531944 23.875505 139.999924
7 139.999924 0.000060 -0.000060 -5.892412 -7.453274 22.598759 139.999924
[Rope1_Seg04]
6 139.999924 -0.000060 -0.000119 -0.098141 -5.726804 13.596631 139.999924
7 139.999924 -0.000060 -0.000119 -1.322528 -6.009357 12.831156 139.999924
[Rope1_Seg05]
6 139.999832 0.000119 -0.000060 -0.620865 -8.771114 10.749281 139.999832
7 139.999832 0.000119 -0.000060 -0.873821 -9.255792 11.149963 139.999832
[Rope1_Seg06]
6 139.999954 0.000119 -0.000060 -0.560688 -7.301669 8.176764 139.999954
7 139.999954 0.000119 -0.000060 -0.956568 -9.224198 9.756178 139.999954
[Rope1_Seg07]
6 139.999985 0.000060 0.000000 0.250606 -3.722150 4.834408 139.999985
7 139.999985 0.000060 0.000000 -0.122367 -4.653001 5.488123 139.999985
[Rope1_Seg09]
6 121.602913 0.000119 -0.000089 -89.793175 -1.359789 0.847147 121.602913
7 121.602913 0.000119 -0.000089 -89.793175 -1.359789 0.847147 121.602913
[L_mid_hand01]
6 103.859421 1.038730 8.195221 114.520287 -53.310486 -20.623234 104.187431
7 103.859421 1.038730 8.195221 114.520287 -53.310486 -20.623234 104.187431
[L_mid_hand02]
6 105.572853 -4.139662 -10.864139 -155.067673 38.166626 -52.448818 106.211075
7 105.572853 -4.139662 -10.864139 -155.067673 38.166626 -52.448818 106.211075
[L_mid_hand03]
6 104.641464 17.579376 -3.913581 -10.970130 15.317461 57.626949 106.179977
7 104.641464 17.579376 -3.913581 -10.970130 15.317461 57.626949 106.179977
[null_rope02_connect]
6 328.732849 0.000179 -0.000119 -151.299881 -32.494579 -58.624977 328.732849
7 328.732849 0.000179 -0.000119 -160.116684 -39.930710 -27.651108 328.732849
[Rope2_Seg01]
6 0.000095 0.000153 0.000013 1.222271 -39.558140 -21.244875 0.000180
7 0.000095 0.000153 0.000015 10.346712 -36.854214 -30.308573 0.000181
[Rope2_Seg02]
6 139.999741 -0.000060 -0.000119 -2.228271 -8.375998 8.236279 139.999756
7 139.999741 -0.000060 -0.000119 -3.548369 -10.352905 10.850953 139.999756
[Rope2_Seg03]
6 140.000107 0.000030 0.000000 -3.568001 -18.637510 17.511604 140.000107
7 140.000107 0.000030 0.000000 -6.265083 -26.364059 24.957199 140.000107
[Rope2_Seg04]
6 139.999802 0.000000 -0.000060 -3.474665 -31.749289 22.358330 139.999802
7 139.999802 0.000000 -0.000060 0.765738 -27.177917 23.076641 139.999802
[Rope2_Seg05]
6 139.999985 -0.000060 0.000119 20.671843 -10.950008 20.193703 139.999985
7 139.999985 -0.000060 0.000119 35.002552 -9.001468 25.941217 139.999985
[Rope2_Seg06]
6 139.999893 -0.000030 -0.000119 37.994545 8.916652 22.224756 139.999893
7 139.999893 -0.000030 -0.000119 42.949802 10.765800 25.260595 139.999893
[Rope2_Seg07]
6 139.999893 0.000060 -0.000060 13.344177 10.132282 8.047256 139.999893
7 139.999893 0.000060 -0.000060 10.342177 9.862617 6.031862 139.999893
[Rope2_Seg09]
6 121.338966 0.000089 -0.000060 97.916710 0.397351 -1.537163 121.338966
7 121.338966 0.000089 -0.000060 111.879036 0.550887 -1.504723 121.338966
[R_mid_hand01]
6 104.680779 11.144459 -10.335981 -47.384258 2.963522 5.452604 105.778534
7 104.680779 11.144459 -10.335981 -47.384258 2.963522 5.452604 105.778534
[R_mid_hand02]
6 104.070427 2.443552 8.231699 75.626297 -2.250001 1.111093 104.424065
7 104.070427 2.443552 8.231699 75.626297 -2.250001 1.111093 104.424065
[R_mid_hand03]
6 106.028137 -11.221827 -5.996406 -164.381912 2.495983 -6.140520 106.788818
7 106.028137 -11.221827 -5.996406 -164.381912 2.495983 -6.140520 106.788818
[spine02]
6 129.756927 0.001550 0.000119 0.166950 -10.614574 -7.608940 129.756927
7 129.756927 0.001550 0.000119 0.011080 -12.085481 -6.199277 129.756927
[spine03]
6 78.614044 0.081609 -4.899018 2.009444 3.773427 18.197844 78.766579
7 78.614044 0.081604 -4.899017 2.020278 3.769469 18.378593 78.766579
[pelvis]
6 169.435242 0.051022 0.000000 -0.062493 -0.179532 15.379538 169.435257
7 169.435242 0.051022 0.000000 -0.062704 -0.179459 15.514288 169.435257
[null_rope03_connect]
6 -1.257226 -2.466202 137.391083 34.927101 -56.846584 20.201399 137.418976
7 -1.257226 -2.466202 137.391083 54.077297 -48.758732 -2.095206 137.418976
[null_rope04_connect]
6 -1.259640 -2.480268 -137.844437 34.927101 -56.846584 20.201399 137.872513
7 -1.259640 -2.480268 -137.844437 54.077297 -48.758732 -2.095206 137.872513
[Rope3_Seg01]
6 0.000000 0.000000 0.000000 -141.131058 -44.866199 -68.961281 0.000000
7 0.000000 0.000000 0.000000 -151.309738 -51.496685 -58.695778 0.000000
[Rope3_Seg02]
6 139.999924 -0.000119 0.000060 -2.217963 5.297139 -3.964154 139.999924
7 139.999924 -0.000119 0.000060 -2.100539 3.986304 -2.373124 139.999924
[Rope3_Seg03]
6 139.999924 -0.000119 0.000119 -4.411651 9.917057 -6.942484 139.999924
7 139.999924 -0.000119 0.000119 -3.389358 6.512890 -3.581525 139.999924
[Rope3_Seg04]
6 139.999924 0.000119 0.000000 -9.139193 20.860228 -12.099656 139.999924
7 139.999924 0.000119 0.000000 -6.077892 12.331994 -5.857903 139.999924
[Rope3_Seg05]
6 139.999924 -0.000238 0.000060 -7.804388 26.434168 -11.248313 139.999924
7 139.999924 -0.000238 0.000060 -7.497350 21.531836 -6.507519 139.999924
[Rope3_Seg06]
6 139.999893 -0.000119 -0.000060 -7.502806 33.637707 -17.967512 139.999893
7 139.999893 -0.000119 -0.000060 -6.976117 32.418114 -11.087107 139.999893
[Rope3_Seg07]
6 139.999771 0.000060 -0.000119 -2.109542 28.639011 -14.724316 139.999771
7 139.999771 0.000060 -0.000119 -3.166908 45.678402 -18.700089 139.999771
[Rope3_Seg08]
6 139.999985 -0.000060 0.000000 1.093611 8.733944 -4.027810 139.999985
7 139.999985 -0.000060 0.000000 3.337829 14.676736 -5.692289 139.999985
[Rope3_Seg09]
6 90.185997 -0.000179 -0.000060 80.702927 -1.362222 -0.846839 90.185997
7 90.185997 -0.000179 -0.000060 78.012650 -1.361844 -0.846342 90.185997
[R_rear_hand01]
6 103.366196 -6.073594 -10.757982 -158.916794 13.108926 -19.868397 104.101845
7 103.366196 -6.073594 -10.757982 -161.721191 16.852905 -30.680994 104.101845
[R_rear_hand02]
6 100.509819 12.039542 -7.992327 -36.772388 13.179056 19.981798 101.543350
7 100.509819 12.039542 -7.992327 -34.103241 19.623949 29.402847 101.543350
[R_rear_hand03]
6 101.539970 5.215704 5.435467 83.929695 -20.504074 5.995993 101.819031
7 101.539970 5.215704 5.435467 83.325706 -31.526098 7.364222 101.819031
[Rope4_Seg01]
6 -0.000017 -0.000064 -0.000153 57.747398 -17.270752 -149.077652 0.000166
7 -0.000017 -0.000061 -0.000153 54.875587 -21.716543 -124.605080 0.000165
[Rope4_Seg02]
6 139.999985 0.000060 0.000119 -4.194355 -3.344364 -5.443058 139.999985
7 139.999985 0.000060 0.000119 -0.894822 -3.160406 -3.749438 139.999985
[Rope4_Seg03]
6 139.999924 0.000000 -0.000238 -12.535157 -5.425203 -10.612046 139.999924
7 139.999924 0.000000 -0.000238 -2.147434 -5.453346 -6.734076 139.999924
[Rope4_Seg04]
6 139.999985 0.000000 0.000119 -59.692261 -5.227139 -26.160423 139.999985
7 139.999985 0.000000 0.000119 -9.471355 -11.260754 -15.781639 139.999985
[Rope4_Seg05]
6 139.999802 -0.000060 -0.000119 -44.694714 27.613974 -24.961824 139.999802
7 139.999802 -0.000060 -0.000119 -71.690544 -14.405926 -37.400642 139.999802
[Rope4_Seg06]
6 139.999924 0.000000 0.000060 -10.874295 22.242001 -7.748259 139.999924
7 139.999924 0.000000 0.000060 -40.349297 21.670551 -21.759903 139.999924
[Rope4_Seg07]
6 139.999802 0.000000 0.000000 -4.804743 16.899742 -7.051116 139.999802
7 139.999802 0.000000 0.000000 -10.343545 19.316923 -5.591924 139.999802
[Rope4_Seg08]
6 139.999924 0.000000 0.000119 -2.135761 8.753599 -1.481473 139.999924
7 139.999924 0.000000 0.000119 -3.660710 9.948133 -0.376638 139.999924
[Rope4_Seg09]
6 90.185791 0.000060 0.000060 -135.617828 2.228885 0.850567 90.185791
7 90.185791 0.000060 0.000060 -135.617828 2.228885 0.850567 90.185791
[L_rear_hand01]
6 101.696655 -8.392275 -7.654577 -19.915020 -33.950905 119.950104 102.329041
7 101.696655 -8.392275 -7.654577 -19.915020 -33.950905 119.950104 102.329041
[L_rear_hand02]
6 102.726799 -1.568258 5.773216 77.862221 61.878510 165.399200 102.900848
7 102.726799 -1.568258 5.773216 77.862221 61.878510 165.399185 102.900848
[L_rear_hand03]
6 104.552910 9.721220 -10.420293 -173.099182 -23.740307 -117.327896 105.519653
7 104.552910 9.721220 -10.420293 -173.099182 -23.740307 -117.327896 105.519653
